<?xml version="1.0" encoding="UTF-8"?>
<svg version="1.1" xmlns="http://www.w3.org/2000/svg" width="68" height="70">
<path d="M0 0 C22.44 0 44.88 0 68 0 C68 23.1 68 46.2 68 70 C45.56 70 23.12 70 0 70 C0 46.9 0 23.8 0 0 Z " fill="#F2F6FE" transform="translate(0,0)"/>
<path d="M0 0 C6.86286276 4.40084921 10.44839706 10.11862869 12.98828125 17.73828125 C13.67247621 25.67494275 11.46368795 31.83222331 6.55078125 38.11328125 C1.12684919 43.66950433 -3.69285077 44.88039204 -11.26171875 45.05078125 C-17.09717943 44.97245292 -21.43177973 44.50467847 -26.01171875 40.73828125 C-31.47695242 35.02364207 -34.60587913 29.86431738 -35.38671875 21.92578125 C-35.20635188 15.20067353 -31.78231658 8.37994401 -27.01171875 3.73828125 C-19.4098143 -2.47051401 -9.08943205 -3.80789436 0 0 Z " fill="#F0F5FE" transform="translate(45.01171875,14.26171875)"/>
<path d="M0 0 C2.875 -0.125 2.875 -0.125 6 0 C6.66 0.66 7.32 1.32 8 2 C10.06874034 2.6425235 10.06874034 2.6425235 12 3 C12.33 4.32 12.66 5.64 13 7 C13.66 7 14.32 7 15 7 C15 5.68 15 4.36 15 3 C15.66 3 16.32 3 17 3 C17.33 5.97 17.66 8.94 18 12 C19.65614657 12.38218767 21.32457024 12.71395102 23 13 C24.58272601 11.41727399 24.34735747 9.61965997 24.5625 7.4375 C24.64628906 6.61121094 24.73007812 5.78492188 24.81640625 4.93359375 C24.87699219 4.29550781 24.93757813 3.65742187 25 3 C25.62648438 2.95101562 26.25296875 2.90203125 26.8984375 2.8515625 C28.12433594 2.73941406 28.12433594 2.73941406 29.375 2.625 C30.18710937 2.55539063 30.99921875 2.48578125 31.8359375 2.4140625 C34.20334191 2.17107412 34.20334191 2.17107412 36 0 C39.125 -0.125 39.125 -0.125 42 0 C41.75284991 6.92020252 39.94934973 11.09406562 35 16 C29.70973277 20.28030712 23.83727106 20.73137307 17.1953125 20.515625 C10.70660407 19.46854736 6.70699882 15.96304864 2.5 11.125 C0.64773488 7.26611433 0.29348923 4.25559378 0 0 Z " fill="#F0F5FE" transform="translate(13,37)"/>
<path d="M0 0 C4.55555556 0.55555556 4.55555556 0.55555556 6 2 C6.07179964 3.51928038 6.08392007 5.04167482 6.0625 6.5625 C6.05347656 7.38878906 6.04445313 8.21507812 6.03515625 9.06640625 C6.02355469 9.70449219 6.01195313 10.34257812 6 11 C6.62648438 10.97679687 7.25296875 10.95359375 7.8984375 10.9296875 C8.71570313 10.91164063 9.53296875 10.89359375 10.375 10.875 C11.18710937 10.85179687 11.99921875 10.82859375 12.8359375 10.8046875 C15 11 15 11 17 13 C18.98821313 13.39764263 20.98944339 13.73775349 23 14 C23 14.66 23 15.32 23 16 C21.2984375 16.4640625 21.2984375 16.4640625 19.5625 16.9375 C16.21224901 17.62924531 16.21224901 17.62924531 15 19 C13.48071962 19.07179964 11.95832518 19.08392007 10.4375 19.0625 C9.61121094 19.05347656 8.78492187 19.04445313 7.93359375 19.03515625 C6.97646484 19.01775391 6.97646484 19.01775391 6 19 C6.02320312 19.62648438 6.04640625 20.25296875 6.0703125 20.8984375 C6.09738281 22.12433594 6.09738281 22.12433594 6.125 23.375 C6.14820312 24.18710937 6.17140625 24.99921875 6.1953125 25.8359375 C6 28 6 28 4 30 C-0.55555556 29.44444444 -0.55555556 29.44444444 -2 28 C-2.07179964 26.48071962 -2.08392007 24.95832518 -2.0625 23.4375 C-2.05347656 22.61121094 -2.04445313 21.78492187 -2.03515625 20.93359375 C-2.02355469 20.29550781 -2.01195313 19.65742187 -2 19 C-2.66 19 -3.32 19 -4 19 C-4 20.32 -4 21.64 -4 23 C-4.66 23 -5.32 23 -6 23 C-6.33 21.68 -6.66 20.36 -7 19 C-7.680625 18.87625 -8.36125 18.7525 -9.0625 18.625 C-12.4277412 17.90899123 -15.70013425 16.97054875 -19 16 C-19 15.34 -19 14.68 -19 14 C-17.906875 13.773125 -16.81375 13.54625 -15.6875 13.3125 C-11.49672376 11.82086778 -10.91792322 10.83584643 -9 7 C-8.34 7 -7.68 7 -7 7 C-7 8.32 -7 9.64 -7 11 C-6.01 11 -5.02 11 -4 11 C-4 9.68 -4 8.36 -4 7 C-3.34 7 -2.68 7 -2 7 C-2.04125 6.21625 -2.0825 5.4325 -2.125 4.625 C-2 2 -2 2 0 0 Z " fill="#128CC8" transform="translate(32,21)"/>
<path d="M0 0 C6.86286276 4.40084921 10.44839706 10.11862869 12.98828125 17.73828125 C13.67247621 25.67494275 11.46368795 31.83222331 6.55078125 38.11328125 C1.12684919 43.66950433 -3.69285077 44.88039204 -11.26171875 45.05078125 C-17.09717943 44.97245292 -21.43177973 44.50467847 -26.01171875 40.73828125 C-31.47695242 35.02364207 -34.60587913 29.86431738 -35.38671875 21.92578125 C-35.20635188 15.20067353 -31.78231658 8.37994401 -27.01171875 3.73828125 C-19.4098143 -2.47051401 -9.08943205 -3.80789436 0 0 Z M-28.671875 8.4609375 C-33.08527791 14.25122376 -32.9298402 20.75181418 -32.01171875 27.73828125 C-30.23035708 34.54286154 -25.81332826 38.10913591 -20.01171875 41.73828125 C-15.11490998 44.18668564 -7.77460738 43.43678933 -2.5859375 42.125 C2.77771039 39.76082899 6.0371755 35.71125185 8.98828125 30.73828125 C10.96277661 24.81479516 11.2784955 17.84104561 8.859375 12.0234375 C5.27395956 6.3972373 1.37300727 2.86652326 -5.01171875 0.73828125 C-15.23288233 -0.38010092 -21.51542957 1.03507295 -28.671875 8.4609375 Z " fill="#BBDEF3" transform="translate(45.01171875,14.26171875)"/>
<path d="M0 0 C0.33 0 0.66 0 1 0 C1.17015625 0.79664063 1.3403125 1.59328125 1.515625 2.4140625 C3.27532451 10.10806781 4.94165231 15.94852727 11.4375 20.875 C16.97326802 24.07229405 22.81139183 23.81999058 29 23 C34.28808734 21.55933518 37.99205099 18.81062567 40.96875 14.21484375 C43.06641891 9.70962303 44.02039262 4.85025117 45 0 C45.33 0 45.66 0 46 0 C46.46241334 7.55275115 45.39212693 13.12943009 40.625 19.25 C36.22534356 23.85916389 32.31593101 25.73244472 26.046875 26.23828125 C19.21620096 26.39205235 13.4473031 26.49372707 8 22 C2.68743409 16.35604597 -0.1774059 12.06360145 -0.0625 4.25 C-0.05347656 3.45078125 -0.04445313 2.6515625 -0.03515625 1.828125 C-0.02355469 1.22484375 -0.01195312 0.6215625 0 0 Z " fill="#B5D7EC" transform="translate(11,33)"/>
<path d="M0 0 C3.625 -0.1875 3.625 -0.1875 7 0 C6.01 1.485 6.01 1.485 5 3 C1.375 3.1875 1.375 3.1875 -2 3 C-1.34 2.01 -0.68 1.02 0 0 Z " fill="#077EBB" transform="translate(30,37)"/>
</svg>
